<svg xmlns="http://www.w3.org/2000/svg" viewBox="0 0 500 500"><g id="freepik--Shadow--inject-27"><ellipse id="freepik--path--inject-27" cx="250" cy="416.24" rx="193.89" ry="11.32" style="fill:#f5f5f5"></ellipse></g><g id="freepik--Character--inject-27"><path d="M262.77,197.89l-5.47-7.19-1.86,8.3s4,3.55,7.29,2.34Z" style="fill:#ffc3bd"></path><polygon points="250.5 188.92 249.32 195.95 256.53 199.82 257.3 190.7 250.5 188.92" style="fill:#ffc3bd"></polygon><path d="M308.69,176.16c-.65.86-1.41,1.94-2.07,3s-1.37,2.09-2,3.15c-1.33,2.13-2.6,4.31-3.81,6.52s-2.38,4.45-3.47,6.72-2.16,4.57-3.15,6.88l-.4.92a14.06,14.06,0,0,1-.73,1.45,13,13,0,0,1-8.24,6.19,19.11,19.11,0,0,1-5.8.42,28.69,28.69,0,0,1-4.88-.83,53.31,53.31,0,0,1-8.44-2.92c-1.32-.57-2.63-1.16-3.91-1.79-.65-.31-1.29-.63-1.93-1s-1.24-.62-2-1.07l7.86-11.59c.29.27.82.68,1.26,1l1.42,1c1,.64,2,1.28,3,1.85a33.63,33.63,0,0,0,6,2.74,10.36,10.36,0,0,0,4.69.64,1.36,1.36,0,0,0,.64-.24,1.54,1.54,0,0,0,.22-.3,2.57,2.57,0,0,0,.15-.29l.38-.87q3.18-7.34,6.69-14.51c1.18-2.4,2.38-4.78,3.61-7.16.61-1.19,1.24-2.38,1.88-3.57s1.26-2.34,2-3.66Z" style="fill:#0C43BD"></path><path d="M308.69,176.16c-.65.86-1.41,1.94-2.07,3s-1.37,2.09-2,3.15c-1.33,2.13-2.6,4.31-3.81,6.52s-2.38,4.45-3.47,6.72-2.16,4.57-3.15,6.88l-.4.92a14.06,14.06,0,0,1-.73,1.45,13,13,0,0,1-8.24,6.19,19.11,19.11,0,0,1-5.8.42,28.69,28.69,0,0,1-4.88-.83,53.31,53.31,0,0,1-8.44-2.92c-1.32-.57-2.63-1.16-3.91-1.79-.65-.31-1.29-.63-1.93-1s-1.24-.62-2-1.07l7.86-11.59c.29.27.82.68,1.26,1l1.42,1c1,.64,2,1.28,3,1.85a33.63,33.63,0,0,0,6,2.74,10.36,10.36,0,0,0,4.69.64,1.36,1.36,0,0,0,.64-.24,1.54,1.54,0,0,0,.22-.3,2.57,2.57,0,0,0,.15-.29l.38-.87q3.18-7.34,6.69-14.51c1.18-2.4,2.38-4.78,3.61-7.16.61-1.19,1.24-2.38,1.88-3.57s1.26-2.34,2-3.66Z" style="fill:#fff;opacity:0.8"></path><path d="M318.24,151.39c-.77-5.53,3.09-18.87,4.85-21.57s3.27-3.2,6.71-1.26,7.76,16.24,4.38,22.15S319.43,159.94,318.24,151.39Z" style="fill:#263238"></path><path d="M326.59,154.56a5.88,5.88,0,0,1-.6,0c-2.62-.22-4.45-1.9-5.15-4.74h0c-1.34-5.37,1-19.06,2.54-22.14s3.26-3.64,6.86-2.09c1.67.73,3.82,3.89,5.46,8.07s3,10.22,1.39,13.83C335.37,151.37,330.59,154.56,326.59,154.56Zm.45-29.35c-1.38,0-2.28.84-3.21,2.66-1.51,3-3.8,16.64-2.51,21.79h0c.84,3.36,3,4.23,4.71,4.37,3.85.33,8.91-2.9,10.6-6.77,1.51-3.47.27-9.22-1.4-13.45-1.57-4-3.66-7.12-5.19-7.79A7.94,7.94,0,0,0,327,125.21Z" style="fill:#263238"></path><path d="M349.55,127.69c-3.72,6.42-11.57,5-14.48,4.41s-4.14-1.58-4.87-4.59,5.21-13,12.62-12.58C349,115.28,352.54,122.53,349.55,127.69Z" style="fill:#263238"></path><path d="M333.12,129a.26.26,0,0,1-.23-.15c-.82-1.91-.86-6.72,1.23-10.43a9.09,9.09,0,0,1,6.89-4.74,7.94,7.94,0,0,1,7.35,2.79.25.25,0,0,1,0,.35.24.24,0,0,1-.35,0,7.46,7.46,0,0,0-6.9-2.61,8.52,8.52,0,0,0-6.53,4.48c-2.08,3.7-1.89,8.4-1.2,10a.25.25,0,0,1-.13.33Z" style="fill:#263238"></path><path d="M318.34,130.88c0,3-3,9.68-4.11,11s-2,1.45-3.61.18-2.9-9.09-.7-11.95S318.34,126.31,318.34,130.88Z" style="fill:#263238"></path><polygon points="317.75 406.45 309.38 406.45 308.83 387.08 317.19 387.08 317.75 406.45" style="fill:#ffc3bd"></polygon><polygon points="361.21 402.54 352.92 403.63 347.72 384.79 356.01 383.69 361.21 402.54" style="fill:#ffc3bd"></polygon><path d="M351.81,402.14l9-2.59a.65.65,0,0,1,.8.36l3.08,6.85a1.35,1.35,0,0,1-.88,1.8c-3.16.85-4.73,1.1-8.7,2.24-2.45.7-5.94,2-9.31,2.95s-4.52-2.31-3.2-3c5.91-3.16,6.37-5.32,8-7.71A2.2,2.2,0,0,1,351.81,402.14Z" style="fill:#263238"></path><path d="M309.1,405.48h9.39a.67.67,0,0,1,.67.57l1.07,7.44a1.33,1.33,0,0,1-1.34,1.48c-3.28-.05-4.85-.25-9-.25-2.54,0-7.79.27-11.3.27s-3.7-3.47-2.24-3.79c6.55-1.41,9.13-3.35,11.34-5.2A2.17,2.17,0,0,1,309.1,405.48Z" style="fill:#263238"></path><polygon points="308.83 387.09 309.11 397.07 317.48 397.07 317.19 387.09 308.83 387.09" style="opacity:0.2"></polygon><polygon points="356.01 383.7 347.72 384.79 350.41 394.51 358.7 393.41 356.01 383.7" style="opacity:0.2"></polygon><path d="M299.1,167.73s-4,1.4,4,50.47h34c-.57-13.82-.59-22.34,6-50.71a100,100,0,0,0-14.42-1.9,107.12,107.12,0,0,0-15.42,0C306.61,166.19,299.1,167.73,299.1,167.73Z" style="fill:#0C43BD"></path><path d="M327.13,148.22c-1,5-1.94,14.06,1.53,17.37,0,0-1.36,5-10.58,5-10.14,0-4.84-5-4.84-5,5.53-1.32,5.39-5.43,4.42-9.28Z" style="fill:#ffc3bd"></path><path d="M323.27,151.52l-5.6,4.78a15.56,15.56,0,0,1,.47,2.74c2.12-.31,5-2.63,5.24-4.84A7.29,7.29,0,0,0,323.27,151.52Z" style="opacity:0.2"></path><path d="M331.71,139.36c-1.94,8.07-2.58,11.53-7.44,15-7.3,5.21-16.79,1.07-17.31-7.42-.46-7.64,2.78-19.55,11.34-21.39A11.32,11.32,0,0,1,331.71,139.36Z" style="fill:#ffc3bd"></path><path d="M335.72,135.88c-2.78-1.16-8.19-7.46-9.06-9.33s-.77-3,.93-4.48S336,121,339,125.91C341.28,129.58,340,137.67,335.72,135.88Z" style="fill:#0C43BD"></path><path d="M331.21,142.92c-4-1.68-11.81-10.75-13.07-13.46s-1.11-4.25,1.34-6.46,12.07-1.61,16.48,5.54C339.23,133.84,337.41,145.5,331.21,142.92Z" style="fill:#263238"></path><path d="M303.1,218.2s-6.6,64.42-6.05,89.92c.57,26.52,10.29,87,10.29,87h11.31s-1.79-58.95-.79-85C319,281.74,328,218.2,328,218.2Z" style="fill:#0C43BD"></path><polygon points="319.63 395.54 306.36 395.54 305.38 391.31 320.24 390.79 319.63 395.54" style="fill:#0C43BD"></polygon><polygon points="319.63 395.54 306.36 395.54 305.38 391.31 320.24 390.79 319.63 395.54" style="opacity:0.30000000000000004"></polygon><path d="M317.75,234.23C309.4,251,316.07,281.62,319,293c1.51-17.1,4.06-38,6.05-53.37C323.81,231,321.59,226.49,317.75,234.23Z" style="opacity:0.2"></path><path d="M312.06,218.2s7.7,67,13.51,88.47c6.9,25.53,22.58,86.19,22.58,86.19l11.31-1.5s-10.08-67.47-13.41-81.53c-7.12-30,0-72.9-9-91.63Z" style="fill:#0C43BD"></path><polygon points="360.84 391.78 346.81 393.63 344.74 389.42 361.13 386.5 360.84 391.78" style="fill:#0C43BD"></polygon><polygon points="360.84 391.78 346.81 393.63 344.74 389.42 361.13 386.5 360.84 391.78" style="opacity:0.30000000000000004"></polygon><path d="M318.93,139.47c-.11.66-.56,1.14-1,1.06s-.7-.68-.58-1.34.56-1.14,1-1.07S319.05,138.8,318.93,139.47Z" style="fill:#263238"></path><path d="M311.42,138.15c-.11.66-.56,1.14-1,1.06s-.69-.68-.58-1.34.57-1.14,1-1.07S311.54,137.48,311.42,138.15Z" style="fill:#263238"></path><path d="M311,136.88l-1.52-.75S310.12,137.52,311,136.88Z" style="fill:#263238"></path><path d="M313.21,139.64a18,18,0,0,1-3.11,3.82,2.91,2.91,0,0,0,2.29.86Z" style="fill:#ed847e"></path><path d="M315.39,147.45a6.57,6.57,0,0,1-1.13-.1.2.2,0,0,1-.16-.23.2.2,0,0,1,.23-.16,5.32,5.32,0,0,0,4.65-1.31.2.2,0,0,1,.28,0,.19.19,0,0,1,0,.28A5.54,5.54,0,0,1,315.39,147.45Z" style="fill:#263238"></path><path d="M333.38,145a6.08,6.08,0,0,1-3.7,2.8c-2.06.52-3-1.33-2.42-3.25.55-1.73,2.3-4.08,4.34-3.75A2.72,2.72,0,0,1,333.38,145Z" style="fill:#ffc3bd"></path><path d="M321.62,137.19a.4.4,0,0,1-.24-.2,3.13,3.13,0,0,0-2.26-1.76.39.39,0,0,1-.34-.44.39.39,0,0,1,.43-.35,3.93,3.93,0,0,1,2.88,2.19.41.41,0,0,1-.18.54A.42.42,0,0,1,321.62,137.19Z" style="fill:#263238"></path><path d="M308.69,134.09a.36.36,0,0,1-.27-.11.39.39,0,0,1,0-.56,4,4,0,0,1,3.39-1.26.4.4,0,0,1,.31.47.39.39,0,0,1-.46.31,3.15,3.15,0,0,0-2.67,1A.4.4,0,0,1,308.69,134.09Z" style="fill:#263238"></path><path d="M347.7,404.3a1.2,1.2,0,0,1-.5-.86.7.7,0,0,1,.23-.65c.81-.69,3.7.18,4,.29a.19.19,0,0,1,.14.16.2.2,0,0,1-.1.2c-1,.54-2.74,1.39-3.69.92Zm3.18-1c-1.16-.31-2.77-.59-3.2-.23a.28.28,0,0,0-.08.29.73.73,0,0,0,.38.62C348.5,404.26,349.56,404,350.88,403.32Z" style="fill:#0C43BD"></path><path d="M350.09,402.85c-.81-.52-1.61-1.27-1.66-1.88a.67.67,0,0,1,.48-.71,1,1,0,0,1,.88,0c1.09.52,1.78,2.83,1.8,2.93a.19.19,0,0,1,0,.19.22.22,0,0,1-.19.06A4.77,4.77,0,0,1,350.09,402.85Zm-.36-2.15a.39.39,0,0,0-.11-.06.63.63,0,0,0-.55,0c-.24.1-.26.22-.25.32.05.58,1.34,1.62,2.27,2A5,5,0,0,0,349.73,400.7Z" style="fill:#0C43BD"></path><path d="M306,406.94a3.19,3.19,0,0,1-2-.51,1.13,1.13,0,0,1-.36-1,.64.64,0,0,1,.34-.52c1-.56,4.36,1.14,4.73,1.33a.2.2,0,0,1,.11.21.19.19,0,0,1-.16.16A13.51,13.51,0,0,1,306,406.94Zm-1.49-1.73a.9.9,0,0,0-.37.07.27.27,0,0,0-.13.22.68.68,0,0,0,.23.63c.5.46,1.88.54,3.73.23A10.81,10.81,0,0,0,304.47,405.21Z" style="fill:#0C43BD"></path><path d="M308.55,406.65l-.08,0c-1-.45-3-2.25-2.81-3.2,0-.23.19-.5.74-.56a1.43,1.43,0,0,1,1.1.34c1.05.88,1.24,3.13,1.25,3.22a.23.23,0,0,1-.08.18A.19.19,0,0,1,308.55,406.65Zm-2-3.39h-.12c-.36,0-.39.19-.39.23-.1.57,1.24,2,2.26,2.61a4.59,4.59,0,0,0-1.07-2.58A1,1,0,0,0,306.56,403.26Z" style="fill:#0C43BD"></path><path d="M337.57,216.21l.87,3c.11.23-.17.47-.56.47H302.93c-.31,0-.56-.15-.58-.34l-.31-3c0-.21.25-.39.58-.39H337A.63.63,0,0,1,337.57,216.21Z" style="fill:#263238"></path><path d="M333,220.05h.92c.18,0,.32-.09.31-.21l-.43-4c0-.11-.18-.21-.36-.21h-.92c-.18,0-.32.1-.31.21l.43,4C332.6,220,332.76,220.05,333,220.05Z" style="fill:#0C43BD"></path><path d="M305.52,220.05h.92c.18,0,.32-.09.31-.21l-.43-4c0-.11-.18-.21-.36-.21H305c-.18,0-.32.1-.31.21l.43,4C305.17,220,305.33,220.05,305.52,220.05Z" style="fill:#0C43BD"></path><path d="M319.23,220.05h.92c.19,0,.33-.09.31-.21l-.43-4c0-.11-.17-.21-.35-.21h-.93c-.18,0-.32.1-.31.21l.44,4C318.89,220,319.05,220.05,319.23,220.05Z" style="fill:#0C43BD"></path><path d="M318.54,138.19l-1.51-.74S317.63,138.84,318.54,138.19Z" style="fill:#263238"></path><path d="M313.46,164.67c-4,.25-13.3.91-15.35,2.66S295.32,203.74,297,216s-4.33,119.27-1.5,139.61c23-1.67,27.89-1.17,27.89-1.17l.87-6.17,2.46,6.34s25.25-2.23,30.75-.23c-.17-20-9.61-117.66-17.11-137.66,2.5-25,5.83-48.34,4.17-50.17S329,164.67,329,164.67a14.31,14.31,0,0,1-9.62,4.62C313.5,169.46,313.46,164.67,313.46,164.67Z" style="fill:#0C43BD"></path><path d="M313.46,164.67c-4,.25-13.3.91-15.35,2.66S295.32,203.74,297,216s-4.33,119.27-1.5,139.61c23-1.67,27.89-1.17,27.89-1.17l.87-6.17,2.46,6.34s25.25-2.23,30.75-.23c-.17-20-9.61-117.66-17.11-137.66,2.5-25,5.83-48.34,4.17-50.17S329,164.67,329,164.67a14.31,14.31,0,0,1-9.62,4.62C313.5,169.46,313.46,164.67,313.46,164.67Z" style="fill:#fff;opacity:0.8"></path><path d="M340.62,214.29l-15.55-2.73a17.81,17.81,0,0,0,.75,5c2.63.85,10.86.75,14.67.43l-.11-.3Z" style="fill:#0C43BD;opacity:0.2"></path><path d="M339.21,181.3c0,4.62.89,12.43,3.07,17.58.6-5.38,1.17-10.4,1.63-14.8Z" style="fill:#0C43BD;opacity:0.2"></path><path d="M324.27,348.51a.28.28,0,0,1-.28-.26c-.07-.74-6.78-74.38-6.61-129.59.1-33.53.77-49.24.77-49.4a.29.29,0,0,1,.58,0c0,.15-.67,15.85-.78,49.37-.16,55.19,6.54,128.8,6.61,129.54a.28.28,0,0,1-.26.31Z" style="fill:#0C43BD;opacity:0.2"></path><path d="M341.09,227.73l-.13,0A22.32,22.32,0,0,1,330.15,216a.29.29,0,1,1,.55-.18,21.71,21.71,0,0,0,10.52,11.39.28.28,0,0,1,.13.38A.27.27,0,0,1,341.09,227.73Z" style="fill:#0C43BD;opacity:0.2"></path><path d="M298.93,227.73a.26.26,0,0,1-.19-.07.29.29,0,0,1,0-.41,21.26,21.26,0,0,0,5.57-10.74.28.28,0,0,1,.32-.25.27.27,0,0,1,.25.31c0,.23-.68,5.62-5.71,11.07A.31.31,0,0,1,298.93,227.73Z" style="fill:#0C43BD;opacity:0.2"></path><path d="M320,221.59H297.88a2.15,2.15,0,0,1-2.07-1.83l-3.94-30.39a1.57,1.57,0,0,1,1.59-1.83h22.16a2.15,2.15,0,0,1,2.07,1.83l3.94,30.39A1.57,1.57,0,0,1,320,221.59Z" style="fill:#263238"></path><path d="M327.13,205.14l-6.55-6.23-.5,8.49s4.54,2.87,7.56,1.15Z" style="fill:#ffc3bd"></path><polygon points="313.59 198.24 313.55 205.37 321.28 208.04 320.58 198.91 313.59 198.24" style="fill:#ffc3bd"></polygon><path d="M356.91,203.31l-.11-1.12c-.06-.75-.16-1.48-.24-2.23a80,80,0,0,0-4.28-17.09c-1-2.75-2.13-5.43-3.35-8.08-.61-1.32-1.26-2.64-1.94-3.94l-1.07-2-.56-1c-.21-.35-.37-.63-.66-1.09l-10.86,7.64c.09.1.3.38.46.6l.53.72c.35.49.68,1,1,1.53.66,1,1.31,2.1,1.92,3.19a62.56,62.56,0,0,1,3.28,6.74A57.18,57.18,0,0,1,345,201.48c.07.6.15,1.2.2,1.81l.06.6-.18,0a14.22,14.22,0,0,1-2.72-.14,34.4,34.4,0,0,1-6.75-1.79c-1.16-.41-2.31-.89-3.45-1.38l-1.69-.79c-.53-.27-1.14-.59-1.55-.83l-5.52,12.87c.84.29,1.49.46,2.22.68l2.12.61c1.41.4,2.84.76,4.28,1.11a58.38,58.38,0,0,0,9.12,1.54,24.53,24.53,0,0,0,5.38-.1,15.63,15.63,0,0,0,3.23-.77,11.45,11.45,0,0,0,3.61-2.09,10.14,10.14,0,0,0,2.76-3.83,11.78,11.78,0,0,0,.85-4A16.06,16.06,0,0,0,356.91,203.31Z" style="fill:#0C43BD"></path><path d="M356.91,203.31l-.11-1.12c-.06-.75-.16-1.48-.24-2.23a80,80,0,0,0-4.28-17.09c-1-2.75-2.13-5.43-3.35-8.08-.61-1.32-1.26-2.64-1.94-3.94l-1.07-2-.56-1c-.21-.35-.37-.63-.66-1.09l-10.86,7.64c.09.1.3.38.46.6l.53.72c.35.49.68,1,1,1.53.66,1,1.31,2.1,1.92,3.19a62.56,62.56,0,0,1,3.28,6.74A57.18,57.18,0,0,1,345,201.48c.07.6.15,1.2.2,1.81l.06.6-.18,0a14.22,14.22,0,0,1-2.72-.14,34.4,34.4,0,0,1-6.75-1.79c-1.16-.41-2.31-.89-3.45-1.38l-1.69-.79c-.53-.27-1.14-.59-1.55-.83l-5.52,12.87c.84.29,1.49.46,2.22.68l2.12.61c1.41.4,2.84.76,4.28,1.11a58.38,58.38,0,0,0,9.12,1.54,24.53,24.53,0,0,0,5.38-.1,15.63,15.63,0,0,0,3.23-.77,11.45,11.45,0,0,0,3.61-2.09,10.14,10.14,0,0,0,2.76-3.83,11.78,11.78,0,0,0,.85-4A16.06,16.06,0,0,0,356.91,203.31Z" style="fill:#fff;opacity:0.8"></path><path d="M328.5,163.9a33.89,33.89,0,0,1-9.37,5.39c2.5,2.23,2.56,8.71,2.56,8.71s10.81-7.94,10.4-13.42A11.14,11.14,0,0,0,328.5,163.9Z" style="fill:#fff"></path><path d="M313.74,164.47a6.35,6.35,0,0,0,3.7,4.68c-2.5,2.22-3.68,7.48-3.68,7.48s-6.26-6.55-3.35-11.88A5.9,5.9,0,0,1,313.74,164.47Z" style="fill:#fff"></path><path d="M245.88,194.25a.5.5,0,0,1-.45-.28.51.51,0,0,1,.22-.67l15.25-7.66a.5.5,0,1,1,.45.89L246.1,194.2A.54.54,0,0,1,245.88,194.25Z" style="fill:#263238"></path><path d="M311.23,128c-2.27,3.16,10,11.86,14.12,13.07C324,135.65,320.29,115.37,311.23,128Z" style="fill:#263238"></path><path d="M317.79,144.66a3.25,3.25,0,0,1-.69-.08c-2.4-.51-3.77-3.6-3.07-6.89s3.24-5.54,5.63-5,3.77,3.61,3.07,6.9h0C322.09,142.53,320,144.66,317.79,144.66ZM319,133.12c-1.92,0-3.83,2-4.41,4.68-.65,3,.55,5.82,2.66,6.27s4.36-1.62,5-4.62l.26.05-.26-.05c.65-3-.55-5.82-2.66-6.27A3,3,0,0,0,319,133.12Z" style="fill:#fff"></path><path d="M308.15,143.24a3.23,3.23,0,0,1-.69-.07c-2.4-.52-3.77-3.61-3.07-6.9a7.37,7.37,0,0,1,2.15-3.91,3.9,3.9,0,0,1,3.48-1.11c2.4.51,3.77,3.6,3.07,6.89C312.45,141.11,310.32,143.24,308.15,143.24Zm1.17-11.54a3.65,3.65,0,0,0-2.43,1.05,6.79,6.79,0,0,0-2,3.63c-.65,3,.55,5.82,2.66,6.27s4.36-1.62,5-4.62-.55-5.82-2.66-6.27A3,3,0,0,0,309.32,131.7Z" style="fill:#fff"></path><path d="M314.18,138.63a.27.27,0,0,1-.2-.09,1.27,1.27,0,0,0-1.07-.37.26.26,0,0,1-.3-.22.26.26,0,0,1,.21-.3,1.81,1.81,0,0,1,1.56.55.27.27,0,0,1,0,.37A.27.27,0,0,1,314.18,138.63Z" style="fill:#fff"></path></g><g id="freepik--artificial-intelligence--inject-27"><path d="M187.81,197.06a13.59,13.59,0,1,1,13.59-13.58A13.6,13.6,0,0,1,187.81,197.06Zm0-26a12.43,12.43,0,1,0,12.43,12.43A12.45,12.45,0,0,0,187.81,171.05Z" style="fill:#0C43BD"></path><path d="M187.81,188.23a13.59,13.59,0,1,1,13.59-13.58A13.6,13.6,0,0,1,187.81,188.23Zm0-26a12.43,12.43,0,1,0,12.43,12.43A12.44,12.44,0,0,0,187.81,162.22Z" style="fill:#0C43BD"></path><path d="M191.5,125a8.08,8.08,0,1,1,8.08-8.08A8.1,8.1,0,0,1,191.5,125Zm0-15.48a7.4,7.4,0,1,0,7.4,7.4A7.41,7.41,0,0,0,191.5,109.54Z" style="fill:#0C43BD"></path><path d="M189.9,122.69a8.08,8.08,0,1,1,8.08-8.08A8.09,8.09,0,0,1,189.9,122.69Zm0-15.47a7.39,7.39,0,1,0,7.39,7.39A7.39,7.39,0,0,0,189.9,107.22Z" style="fill:#0C43BD"></path><path d="M167.46,142.94l5.17-16.71s-31.31-9.2-33.49-13c-3-5.12-20.68-21.46-25-27-1.42-.22-5.18.31-6.2,1.13,2,9.82,19.34,32.11,23.46,35.62C140.83,131,167.46,142.94,167.46,142.94Z" style="fill:#0C43BD"></path><path d="M114.92,87.44,112.32,79l-9.36.6a37.66,37.66,0,0,0,5.69,9.89Z" style="fill:#0C43BD"></path><polygon points="108.13 70.11 103.49 71.94 102.96 79.58 112.32 78.98 108.13 70.11" style="fill:#0C43BD"></polygon><path d="M160.15,133.47a126.71,126.71,0,0,0-4,28.38A17.32,17.32,0,0,0,173,179.59l13.11.36a16.36,16.36,0,0,0,16.7-14.44c.83-7,2.33-17.06,5.24-32.17a5.58,5.58,0,0,0-4.68-6.58c-2.69-.39-6-.78-9.24-.94a169,169,0,0,0-19.24,0c-2.79.26-5.52.71-7.76,1.15A9,9,0,0,0,160.15,133.47Z" style="fill:#0C43BD"></path><path d="M192.06,107.84c-1.36,6.19-2.15,13.85,2.08,18,0,0-2.65,6.28-14.14,6.28-10.51,0-5.1-6.28-5.1-6.28,6.94-1.64,6.79-10.18,5.71-15Z" style="fill:#0C43BD"></path><path d="M180.6,110.84c.65,2.82,1,6.92-.29,10.16a11,11,0,0,0,3.1-1c3.94-1.83,5.93-4.72,8-9,.18-1.1.39-2.17.62-3.21Z" style="opacity:0.2"></path><path d="M189.64,110.14a7.74,7.74,0,0,0,5.46,2.55c2.76.07,3.5-2.62,2.2-4.93-1.17-2.08-4-4.62-6.55-3.6A3.68,3.68,0,0,0,189.64,110.14Z" style="fill:#0C43BD"></path><path d="M197.32,100.55c-2.53,8.09-3.61,12.94-8.75,16.21-7.72,4.92-16.79-1.13-16.69-9.75.09-7.77,4.22-19.68,13-21.13A11.19,11.19,0,0,1,197.32,100.55Z" style="fill:#0C43BD"></path><g style="opacity:0.4"><path d="M193.52,96.22a.94.94,0,0,0,.45-.88.84.84,0,0,0-.47-.72,1,1,0,0,0,.08-.81.83.83,0,0,0-.56-.52.91.91,0,0,0,0-.79.78.78,0,0,0-.63-.43.89.89,0,0,0-.16-.77.81.81,0,0,0-.68-.32.93.93,0,0,0-.28-.74.81.81,0,0,0-.73-.19.87.87,0,0,0-.38-.68.77.77,0,0,0-.75-.06.86.86,0,0,0-.48-.61.84.84,0,0,0-.76.06.82.82,0,0,0-.56-.51.85.85,0,0,0-.75.19.83.83,0,0,0-.65-.4h0a.87.87,0,0,0-.71.31.8.8,0,0,0-.69-.29.88.88,0,0,0-.65.42.83.83,0,0,0-.73-.19.92.92,0,0,0-.6.52.79.79,0,0,0-.75-.06.93.93,0,0,0-.52.61.77.77,0,0,0-.76.07,1,1,0,0,0-.42.68.82.82,0,0,0-.73.18,1,1,0,0,0-.33.81.86.86,0,0,0-.77.52.92.92,0,0,0,.11,1,.93.93,0,0,0-.37.9.84.84,0,0,0,.61.7.9.9,0,0,0,.2.94.77.77,0,0,0,.89.17.82.82,0,0,0,1.28.48.79.79,0,0,0,.52.47.83.83,0,0,0,.69-.13.84.84,0,0,0,.53.46.83.83,0,0,0,.69-.13.85.85,0,0,0,.54.46.82.82,0,0,0,.69-.13.8.8,0,0,0,.53.47.84.84,0,0,0,.69-.13.79.79,0,0,0,.53.46.81.81,0,0,0,.69-.13.79.79,0,0,0,.53.46.8.8,0,0,0,.69-.12.81.81,0,0,0,1.22.33.82.82,0,0,0,.53.46h.06a.85.85,0,0,0,.87-.33.8.8,0,0,0,.9.17,1,1,0,0,0,.54-.8.86.86,0,0,0,.84-.42A.93.93,0,0,0,193.52,96.22Z" style="fill:#fff;opacity:0.5"></path><path d="M196,96.9a1.05,1.05,0,0,0,.43-.88.8.8,0,0,0-.39-.71,1.05,1.05,0,0,0,.09-.8.65.65,0,0,0-.47-.49,1,1,0,0,0,0-.79.62.62,0,0,0-.53-.4,1,1,0,0,0-.12-.76.62.62,0,0,0-.59-.29.91.91,0,0,0-.21-.72.62.62,0,0,0-.64-.17.81.81,0,0,0-.31-.66.61.61,0,0,0-.65,0,.82.82,0,0,0-.4-.59.7.7,0,0,0-.67.09.68.68,0,0,0-.48-.48.69.69,0,0,0-.66.21.64.64,0,0,0-.55-.37h0a.77.77,0,0,0-.63.33.63.63,0,0,0-.6-.27.82.82,0,0,0-.58.44.59.59,0,0,0-.63-.16.93.93,0,0,0-.55.53.59.59,0,0,0-.66,0,1,1,0,0,0-.47.62.64.64,0,0,0-.67.09,1.07,1.07,0,0,0-.39.69.72.72,0,0,0-.65.2,1.1,1.1,0,0,0-.31.82.8.8,0,0,0-.69.53,1,1,0,0,0,0,1,1.1,1.1,0,0,0-.35.91.76.76,0,0,0,.51.68,1,1,0,0,0,.14.92.62.62,0,0,0,.78.14.7.7,0,0,0,.5.58.64.64,0,0,0,.6-.15.68.68,0,0,0,.45.44.66.66,0,0,0,.61-.15.68.68,0,0,0,.45.44.66.66,0,0,0,.61-.15.68.68,0,0,0,.45.44.66.66,0,0,0,.61-.15.68.68,0,0,0,.45.44.66.66,0,0,0,.61-.15.68.68,0,0,0,.45.44.66.66,0,0,0,.61-.15.68.68,0,0,0,.45.44.69.69,0,0,0,.61-.15.68.68,0,0,0,.45.44.65.65,0,0,1,1.06.29h0a.75.75,0,0,0,.78-.35.61.61,0,0,0,.78.13,1,1,0,0,0,.5-.8.82.82,0,0,0,.76-.45A1,1,0,0,0,196,96.9Z" style="fill:#fff"></path></g><path d="M196.09,133.31l1-2.45a6.36,6.36,0,0,1,8.13-3.66c8.31,3.06,22.87,8.09,25.62,6.79,5.31-2.51,17.11-6.67,22.8-10.77,1.39.21,4.73,1.87,5.43,3-4.85,9-22.49,20-27.79,20.49-8.13.74-22.42-2.63-30.88-4.9A6.37,6.37,0,0,1,196.09,133.31Z" style="fill:#0C43BD"></path><path d="M258.64,126.87l5.77-5.63-9.34-2.84s-4.88,5.09-1.69,9.63Z" style="fill:#0C43BD"></path><polygon points="265.74 113.57 257.16 111.42 255.07 118.4 264.41 121.24 265.74 113.57" style="fill:#0C43BD"></polygon><polygon points="183.07 104.25 184.93 101.49 191.36 103.25 188.99 105.05 183.07 104.25" style="opacity:0.2"></polygon><polygon points="179.13 102.95 179.5 99.84 175.01 98.47 175.16 100.71 179.13 102.95" style="opacity:0.2"></polygon><path d="M185.17,110.62h0a24.94,24.94,0,0,1-10.5-3.15.28.28,0,0,1-.09-.4.29.29,0,0,1,.39-.09A25.05,25.05,0,0,0,185.19,110a.31.31,0,0,1,.27.32A.29.29,0,0,1,185.17,110.62Z" style="opacity:0.2"></path><path d="M231.49,146.94h-.06a.29.29,0,0,1-.23-.34c.94-4.58-.37-10.62-1.07-12.36a.29.29,0,0,1,.16-.38.28.28,0,0,1,.37.16,27.14,27.14,0,0,1,1.11,12.7A.3.3,0,0,1,231.49,146.94Z" style="opacity:0.2"></path><path d="M206.21,143.56h0c-1.82-.13-3.54-1.61-4.6-3.95a13.15,13.15,0,0,1,1.56-13,.29.29,0,0,1,.4-.06.3.3,0,0,1,.06.41,12.57,12.57,0,0,0-1.49,12.44c1,2.15,2.51,3.5,4.12,3.62a.29.29,0,0,1,.26.31A.28.28,0,0,1,206.21,143.56Z" style="opacity:0.2"></path><path d="M158.86,139.19h-.05a.29.29,0,0,1-.23-.34c1-5.55,6.7-13.17,13.68-13a.29.29,0,0,1,.28.3.3.3,0,0,1-.29.28c-6.67-.16-12.13,7.19-13.1,12.55A.29.29,0,0,1,158.86,139.19Z" style="opacity:0.2"></path><path d="M258.65,127.16h-.06l-1.08-.2c-2.29-.38-5.14-.86-5.47-2.83a.29.29,0,0,1,.24-.34.3.3,0,0,1,.33.24c.26,1.57,2.89,2,5,2.37.39.06.76.12,1.1.19a.29.29,0,0,1,.23.34A.3.3,0,0,1,258.65,127.16Z" style="opacity:0.2"></path><path d="M133.33,125a.28.28,0,0,1-.29-.27c-.15-4.21,3.07-9,6.27-11.25a.29.29,0,1,1,.33.47c-3,2.09-6.16,6.8-6,10.76a.28.28,0,0,1-.27.29Z" style="opacity:0.2"></path><path d="M109.82,89.66a6.91,6.91,0,0,1-1.44-.16.29.29,0,0,1-.21-.35.29.29,0,0,1,.34-.22c2.2.52,5-.41,6.06-2a.29.29,0,0,1,.48.32A6.46,6.46,0,0,1,109.82,89.66Z" style="opacity:0.2"></path><path d="M193.17,152.7c-1.06,8.4-6.66,15.46-13.22,17.3a12.81,12.81,0,0,1-3.37.47c-7.92,0-13.33-8-12.09-17.82s8.68-17.77,16.58-17.76a11.21,11.21,0,0,1,9,4.6A18,18,0,0,1,193.17,152.7Z" style="opacity:0.2"></path><path d="M193.17,152.7c-.85,6.77-4.66,12.67-9.53,15.67A15.28,15.28,0,0,1,180,170c-6.31-1.7-10.53-8.3-9.75-16,.89-8.78,8-15.67,15.79-15.39a12.21,12.21,0,0,1,4.11.86,14.57,14.57,0,0,1,2,3.57A19.54,19.54,0,0,1,193.17,152.7Z" style="opacity:0.2"></path><path d="M193.17,152.7c-.85,6.77-4.66,12.67-9.53,15.67a11.9,11.9,0,0,1-6.14-10.31c-.11-7.41,6.09-14.11,13.89-14.94.23,0,.47,0,.71-.06A19.54,19.54,0,0,1,193.17,152.7Z" style="opacity:0.2"></path><path d="M184.58,146.4c-1.11-1.6-3.3-1.88-5.29-.84a2.31,2.31,0,0,1-2.26-.16c-1.5-.87-3.67-.55-5.44,1-2.25,1.92-3,5-1.66,7l3.23,4.69a2.56,2.56,0,0,0,3.84.41l5.92-5.05C185.17,151.46,185.91,148.34,184.58,146.4Z" style="fill:#0C43BD"></path><path d="M162.34,201.28s-2-13.27.49-23.45a6.44,6.44,0,0,1,6-4.87,145.88,145.88,0,0,1,16.83.59,6.46,6.46,0,0,1,5.82,6.94,85.62,85.62,0,0,0,.82,20.79Z" style="fill:#0C43BD"></path><path d="M162.34,201.28s-2-13.27.49-23.45a6.44,6.44,0,0,1,6-4.87,145.88,145.88,0,0,1,16.83.59,6.46,6.46,0,0,1,5.82,6.94,85.62,85.62,0,0,0,.82,20.79Z" style="opacity:0.2"></path><path d="M183.57,201.28s1.84,73.31-5.22,92.55c6.92,21.55,14,121.67,14,121.67h-22s-4.83-90-7.85-121.67c-5.15-23.71-7.3-69.44-7.94-86.2a6,6,0,0,1,6.16-6.35Z" style="fill:#0C43BD"></path><path d="M177.26,227s-.06,32.79,4,52.66c1.52-12,2.16-27.83,2.4-42.17Z" style="opacity:0.2"></path><path d="M166.79,201.28s15.7,73.31,26.65,92.55c4.75,45.92,21.9,121.67,21.9,121.67h22s-17.65-93.19-26.66-121.67c.37-23.71-8.1-69.44-10.84-86.2a7.62,7.62,0,0,0-7.45-6.35Z" style="fill:#0C43BD"></path><ellipse cx="200.68" cy="293.7" rx="8.07" ry="10.02" transform="translate(-88.78 86.95) rotate(-20.12)" style="fill:#0C43BD"></ellipse><ellipse cx="200.68" cy="293.7" rx="8.07" ry="10.02" transform="translate(-88.78 86.95) rotate(-20.12)" style="opacity:0.2"></ellipse><path d="M217.58,407.93a7.23,7.23,0,0,0-7.28,7.57h15.14A7.93,7.93,0,0,0,217.58,407.93Z" style="fill:#0C43BD"></path><path d="M160.67,295c.67,5.25,4.54,8.93,8.64,8.24s6.87-5.52,6.2-10.77-4.53-8.94-8.63-8.24S160,289.72,160.67,295Z" style="fill:#0C43BD"></path><path d="M160.67,295c.67,5.25,4.54,8.93,8.64,8.24s6.87-5.52,6.2-10.77-4.53-8.94-8.63-8.24S160,289.72,160.67,295Z" style="opacity:0.2"></path><path d="M170.43,407.93a7.57,7.57,0,0,0-7.57,7.57H178A7.56,7.56,0,0,0,170.43,407.93Z" style="fill:#0C43BD"></path><path d="M176.09,232.42a.29.29,0,0,1-.28-.29c0-8.52,4.93-16.47,9.56-21.07,3.93-3.92,8.18-6.16,11.66-6.16a.31.31,0,0,1,.33.29.29.29,0,0,1-.29.29h0c-3.33,0-7.43,2.18-11.26,6-4.54,4.51-9.39,12.31-9.39,20.66A.29.29,0,0,1,176.09,232.42Z" style="opacity:0.2"></path><path d="M172.1,231.74a.2.2,0,0,1-.11,0c-6.94-3-13.93-12.3-14.8-17.83a.31.31,0,0,1,.24-.33.29.29,0,0,1,.33.25c.83,5.27,7.8,14.51,14.46,17.38a.29.29,0,0,1-.12.55Z" style="opacity:0.2"></path><path d="M229.2,409.5a.18.18,0,0,1-.1,0c-4.89-1.88-12-1.13-14-.51a.29.29,0,0,1-.17-.55c2.13-.66,9.29-1.43,14.37.52a.3.3,0,0,1,.17.38A.28.28,0,0,1,229.2,409.5Z" style="opacity:0.2"></path><path d="M181.93,410.85a.25.25,0,0,1-.16-.05c-4.42-2.89-8.57-3.12-10.78-2.44a.29.29,0,0,1-.17-.55c2.44-.75,6.69-.49,11.27,2.51a.29.29,0,0,1,.08.4A.29.29,0,0,1,181.93,410.85Z" style="opacity:0.2"></path></g></svg>